REM DIRINDEX 1\2\5,1\2\6,1\2\7,1\2\8,1\3\9,1\3\10,1\3\11,1\4\12,1\4\13,1\4\14,1\4\15,1\4\16
REM DIRNAME folder01,folder02,folder03,folder04,folder05,folder06,folder07,folder08,folder09,folder10,folder11,folder12,folder13,folder14,folder15,folder16
TITLE ""
FILE "1200_sec01_0040_0048.mp3" MP3
  TRACK 01 AUDIO
    TITLE "0:"
    INDEX 01 00:00:00
  TRACK 02 AUDIO
    TITLE "12:cjc034_03784"
    INDEX 01 00:00:17
  TRACK 03 AUDIO
    TITLE "0:"
    INDEX 01 00:01:42
  TRACK 04 AUDIO
    TITLE "13:cjc034_03785"
    INDEX 01 00:02:00
  TRACK 05 AUDIO
    TITLE "0:"
    INDEX 01 00:04:42
  TRACK 06 AUDIO
    TITLE "14:cjc034_03786"
    INDEX 01 00:04:72
  TRACK 07 AUDIO
    TITLE "0:"
    INDEX 01 00:06:22
  TRACK 08 AUDIO
    TITLE "15:cjc034_03787"
    INDEX 01 00:06:57
  TRACK 09 AUDIO
    TITLE "0:"
    INDEX 01 00:10:21
  TRACK 10 AUDIO
    TITLE "12:cjc034_03788"
    INDEX 01 00:11:70
  TRACK 11 AUDIO
    TITLE "0:"
    INDEX 01 00:13:16
  TRACK 12 AUDIO
    TITLE "13:cjc034_03789"
    INDEX 01 00:13:49
  TRACK 13 AUDIO
    TITLE "0:"
    INDEX 01 00:14:54
  TRACK 14 AUDIO
    TITLE "14:cjc034_03790"
    INDEX 01 00:15:17
  TRACK 15 AUDIO
    TITLE "0:"
    INDEX 01 00:16:48
  TRACK 16 AUDIO
    TITLE "15:cjc034_03791"
    INDEX 01 00:17:04
  TRACK 17 AUDIO
    TITLE "0:"
    INDEX 01 00:20:47
  TRACK 18 AUDIO
    TITLE "12:cjc034_03792"
    INDEX 01 00:22:05
  TRACK 19 AUDIO
    TITLE "0:"
    INDEX 01 00:23:16
  TRACK 20 AUDIO
    TITLE "13:cjc034_03793"
    INDEX 01 00:23:51
  TRACK 21 AUDIO
    TITLE "0:"
    INDEX 01 00:25:07
  TRACK 22 AUDIO
    TITLE "14:cjc034_03794"
    INDEX 01 00:25:39
  TRACK 23 AUDIO
    TITLE "0:"
    INDEX 01 00:26:52
  TRACK 24 AUDIO
    TITLE "15:cjc034_03795"
    INDEX 01 00:27:10
  TRACK 25 AUDIO
    TITLE "0:"
    INDEX 01 00:30:01
  TRACK 26 AUDIO
    TITLE "12:cjc034_03796"
    INDEX 01 00:31:35
  TRACK 27 AUDIO
    TITLE "0:"
    INDEX 01 00:32:50
  TRACK 28 AUDIO
    TITLE "13:cjc034_03797"
    INDEX 01 00:33:11
  TRACK 29 AUDIO
    TITLE "0:"
    INDEX 01 00:34:28
  TRACK 30 AUDIO
    TITLE "14:cjc034_03798"
    INDEX 01 00:34:61
  TRACK 31 AUDIO
    TITLE "0:"
    INDEX 01 00:36:01
  TRACK 32 AUDIO
    TITLE "15:cjc034_03799"
    INDEX 01 00:36:42
  TRACK 33 AUDIO
    TITLE "0:"
    INDEX 01 00:39:49
  TRACK 34 AUDIO
    TITLE "12:cjc034_03800"
    INDEX 01 00:41:04
  TRACK 35 AUDIO
    TITLE "0:"
    INDEX 01 00:42:25
  TRACK 36 AUDIO
    TITLE "13:cjc034_03801"
    INDEX 01 00:42:59
  TRACK 37 AUDIO
    TITLE "0:"
    INDEX 01 00:43:48
  TRACK 38 AUDIO
    TITLE "14:cjc034_03802"
    INDEX 01 00:44:05
  TRACK 39 AUDIO
    TITLE "0:"
    INDEX 01 00:45:24
  TRACK 40 AUDIO
    TITLE "15:cjc034_03803"
    INDEX 01 00:45:57
  TRACK 41 AUDIO
    TITLE "0:"
    INDEX 01 00:49:31
  TRACK 42 AUDIO
    TITLE "12:cjc034_03804"
    INDEX 01 00:50:72
  TRACK 43 AUDIO
    TITLE "0:"
    INDEX 01 00:52:00
  TRACK 44 AUDIO
    TITLE "13:cjc034_03805"
    INDEX 01 00:52:34
  TRACK 45 AUDIO
    TITLE "0:"
    INDEX 01 00:53:49
  TRACK 46 AUDIO
    TITLE "14:cjc034_03806"
    INDEX 01 00:54:19
  TRACK 47 AUDIO
    TITLE "0:"
    INDEX 01 00:55:18
  TRACK 48 AUDIO
    TITLE "15:cjc034_03807"
    INDEX 01 00:55:51
  TRACK 49 AUDIO
    TITLE "0:"
    INDEX 01 00:58:67
  TRACK 50 AUDIO
    TITLE "12:cjc034_03808"
    INDEX 01 01:00:31
  TRACK 51 AUDIO
    TITLE "0:"
    INDEX 01 01:01:42
  TRACK 52 AUDIO
    TITLE "13:cjc034_03809"
    INDEX 01 01:02:01
  TRACK 53 AUDIO
    TITLE "0:"
    INDEX 01 01:04:72
  TRACK 54 AUDIO
    TITLE "14:cjc034_03810"
    INDEX 01 01:05:30
  TRACK 55 AUDIO
    TITLE "0:"
    INDEX 01 01:06:45
  TRACK 56 AUDIO
    TITLE "15:cjc034_03811"
    INDEX 01 01:07:06
  TRACK 57 AUDIO
    TITLE "0:"
    INDEX 01 01:10:10
  TRACK 58 AUDIO
    TITLE "12:cjc034_03812"
    INDEX 01 01:11:47
  TRACK 59 AUDIO
    TITLE "0:"
    INDEX 01 01:12:58
  TRACK 60 AUDIO
    TITLE "13:cjc034_03813"
    INDEX 01 01:13:16
  TRACK 61 AUDIO
    TITLE "0:"
    INDEX 01 01:14:25
  TRACK 62 AUDIO
    TITLE "14:cjc034_03814"
    INDEX 01 01:14:57
  TRACK 63 AUDIO
    TITLE "0:"
    INDEX 01 01:15:70
  TRACK 64 AUDIO
    TITLE "15:cjc034_03815"
    INDEX 01 01:16:26
  TRACK 65 AUDIO
    TITLE "0:"
    INDEX 01 01:19:42
  TRACK 66 AUDIO
    TITLE "12:cjc034_03816"
    INDEX 01 01:21:02
  TRACK 67 AUDIO
    TITLE "0:"
    INDEX 01 01:22:13
  TRACK 68 AUDIO
    TITLE "13:cjc034_03817"
    INDEX 01 01:22:50
  TRACK 69 AUDIO
    TITLE "0:"
    INDEX 01 01:25:43
  TRACK 70 AUDIO
    TITLE "14:cjc034_03818"
    INDEX 01 01:26:01
  TRACK 71 AUDIO
    TITLE "0:"
    INDEX 01 01:27:16
  TRACK 72 AUDIO
    TITLE "15:cjc034_03819"
    INDEX 01 01:27:50
  TRACK 73 AUDIO
    TITLE "0:"
    INDEX 01 01:31:04
